<svg width="200" height="50" viewBox="0 0 200 50" fill="none" xmlns="http://www.w3.org/2000/svg">
<rect width="200" height="50" fill="#99D8D4"/>
<path d="M37.2422 25.1055L44.1562 27.7305V30.5781L34.3477 26.207V23.9453L44.1562 19.5859V22.4336L37.2422 25.1055ZM48.082 33.9648H45.8438L52.5586 15.4375H54.7969L48.082 33.9648ZM96.6797 29.5C97.2109 29.5 97.6211 29.6523 97.9102 29.957C98.1992 30.2539 98.3438 30.6289 98.3438 31.082C98.3438 31.5273 98.1992 31.8984 97.9102 32.1953C97.6211 32.4844 97.2109 32.6289 96.6797 32.6289C96.1719 32.6289 95.7695 32.4844 95.4727 32.1953C95.1758 31.9062 95.0273 31.5352 95.0273 31.082C95.0273 30.6289 95.1719 30.2539 95.4609 29.957C95.75 29.6523 96.1562 29.5 96.6797 29.5ZM163.641 25.0469L156.398 22.3867V19.5859L166.523 23.9453V26.207L156.398 30.5664V27.7656L163.641 25.0469Z" fill="#15566A"/>
<path d="M62.3555 32.7344C60.5508 32.7344 59.0859 32.168 57.9609 31.0352C56.8438 29.8945 56.2852 28.3789 56.2852 26.4883V26.1367C56.2852 24.8711 56.5273 23.7422 57.0117 22.75C57.5039 21.75 58.1914 20.9727 59.0742 20.418C59.957 19.8633 60.9414 19.5859 62.0273 19.5859C63.7539 19.5859 65.0859 20.1367 66.0234 21.2383C66.9688 22.3398 67.4414 23.8984 67.4414 25.9141V27.0625H59.1562C59.2422 28.1094 59.5898 28.9375 60.1992 29.5469C60.8164 30.1562 61.5898 30.4609 62.5195 30.4609C63.8242 30.4609 64.8867 29.9336 65.707 28.8789L67.2422 30.3438C66.7344 31.1016 66.0547 31.6914 65.2031 32.1133C64.3594 32.5273 63.4102 32.7344 62.3555 32.7344ZM62.0156 21.8711C61.2344 21.8711 60.6016 22.1445 60.1172 22.6914C59.6406 23.2383 59.3359 24 59.2031 24.9766H64.6289V24.7656C64.5664 23.8125 64.3125 23.0938 63.8672 22.6094C63.4219 22.1172 62.8047 21.8711 62.0156 21.8711ZM72.3047 19.8203L72.3867 21.2852C73.3242 20.1523 74.5547 19.5859 76.0781 19.5859C78.7188 19.5859 80.0625 21.0977 80.1094 24.1211V32.5H77.2617V24.2852C77.2617 23.4805 77.0859 22.8867 76.7344 22.5039C76.3906 22.1133 75.8242 21.918 75.0352 21.918C73.8867 21.918 73.0312 22.4375 72.4688 23.4766V32.5H69.6211V19.8203H72.3047ZM87.4922 28.8906L90.1758 19.8203H93.1172L88.7227 32.5H86.25L81.8203 19.8203H84.7734L87.4922 28.8906Z" fill="#2BB6E1"/>
<path d="M105.176 16.7383V19.8203H107.414V21.9297H105.176V29.0078C105.176 29.4922 105.27 29.8438 105.457 30.0625C105.652 30.2734 105.996 30.3789 106.488 30.3789C106.816 30.3789 107.148 30.3398 107.484 30.2617V32.4648C106.836 32.6445 106.211 32.7344 105.609 32.7344C103.422 32.7344 102.328 31.5273 102.328 29.1133V21.9297H100.242V19.8203H102.328V16.7383H105.176ZM115.184 32.7344C113.379 32.7344 111.914 32.168 110.789 31.0352C109.672 29.8945 109.113 28.3789 109.113 26.4883V26.1367C109.113 24.8711 109.355 23.7422 109.84 22.75C110.332 21.75 111.02 20.9727 111.902 20.418C112.785 19.8633 113.77 19.5859 114.855 19.5859C116.582 19.5859 117.914 20.1367 118.852 21.2383C119.797 22.3398 120.27 23.8984 120.27 25.9141V27.0625H111.984C112.07 28.1094 112.418 28.9375 113.027 29.5469C113.645 30.1562 114.418 30.4609 115.348 30.4609C116.652 30.4609 117.715 29.9336 118.535 28.8789L120.07 30.3438C119.562 31.1016 118.883 31.6914 118.031 32.1133C117.188 32.5273 116.238 32.7344 115.184 32.7344ZM114.844 21.8711C114.062 21.8711 113.43 22.1445 112.945 22.6914C112.469 23.2383 112.164 24 112.031 24.9766H117.457V24.7656C117.395 23.8125 117.141 23.0938 116.695 22.6094C116.25 22.1172 115.633 21.8711 114.844 21.8711ZM130.066 32.5C129.941 32.2578 129.832 31.8633 129.738 31.3164C128.832 32.2617 127.723 32.7344 126.41 32.7344C125.137 32.7344 124.098 32.3711 123.293 31.6445C122.488 30.918 122.086 30.0195 122.086 28.9492C122.086 27.5977 122.586 26.5625 123.586 25.8438C124.594 25.1172 126.031 24.7539 127.898 24.7539H129.645V23.9219C129.645 23.2656 129.461 22.7422 129.094 22.3516C128.727 21.9531 128.168 21.7539 127.418 21.7539C126.77 21.7539 126.238 21.918 125.824 22.2461C125.41 22.5664 125.203 22.9766 125.203 23.4766H122.355C122.355 22.7812 122.586 22.1328 123.047 21.5312C123.508 20.9219 124.133 20.4453 124.922 20.1016C125.719 19.7578 126.605 19.5859 127.582 19.5859C129.066 19.5859 130.25 19.9609 131.133 20.7109C132.016 21.4531 132.469 22.5 132.492 23.8516V29.5703C132.492 30.7109 132.652 31.6211 132.973 32.3008V32.5H130.066ZM126.938 30.4492C127.5 30.4492 128.027 30.3125 128.52 30.0391C129.02 29.7656 129.395 29.3984 129.645 28.9375V26.5469H128.109C127.055 26.5469 126.262 26.7305 125.73 27.0977C125.199 27.4648 124.934 27.9844 124.934 28.6562C124.934 29.2031 125.113 29.6406 125.473 29.9688C125.84 30.2891 126.328 30.4492 126.938 30.4492ZM138.152 19.8203L138.234 21.1445C139.125 20.1055 140.344 19.5859 141.891 19.5859C143.586 19.5859 144.746 20.2344 145.371 21.5312C146.293 20.2344 147.59 19.5859 149.262 19.5859C150.66 19.5859 151.699 19.9727 152.379 20.7461C153.066 21.5195 153.418 22.6602 153.434 24.168V32.5H150.586V24.25C150.586 23.4453 150.41 22.8555 150.059 22.4805C149.707 22.1055 149.125 21.918 148.312 21.918C147.664 21.918 147.133 22.0938 146.719 22.4453C146.312 22.7891 146.027 23.2422 145.863 23.8047L145.875 32.5H143.027V24.1562C142.988 22.6641 142.227 21.918 140.742 21.918C139.602 21.918 138.793 22.3828 138.316 23.3125V32.5H135.469V19.8203H138.152Z" fill="#2492B5"/>
</svg>
