<svg width="200" height="200" viewBox="0 0 200 200" fill="none" xmlns="http://www.w3.org/2000/svg">
<rect width="200" height="200" fill="#99D8D4"/>
<path d="M37.2422 96.6055L44.1562 99.2305V102.078L34.3477 97.707V95.4453L44.1562 91.0859V93.9336L37.2422 96.6055ZM48.082 105.465H45.8438L52.5586 86.9375H54.7969L48.082 105.465ZM96.6797 101C97.2109 101 97.6211 101.152 97.9102 101.457C98.1992 101.754 98.3438 102.129 98.3438 102.582C98.3438 103.027 98.1992 103.398 97.9102 103.695C97.6211 103.984 97.2109 104.129 96.6797 104.129C96.1719 104.129 95.7695 103.984 95.4727 103.695C95.1758 103.406 95.0273 103.035 95.0273 102.582C95.0273 102.129 95.1719 101.754 95.4609 101.457C95.75 101.152 96.1562 101 96.6797 101ZM163.641 96.5469L156.398 93.8867V91.0859L166.523 95.4453V97.707L156.398 102.066V99.2656L163.641 96.5469Z" fill="#15566A"/>
<path d="M62.3555 104.234C60.5508 104.234 59.0859 103.668 57.9609 102.535C56.8438 101.395 56.2852 99.8789 56.2852 97.9883V97.6367C56.2852 96.3711 56.5273 95.2422 57.0117 94.25C57.5039 93.25 58.1914 92.4727 59.0742 91.918C59.957 91.3633 60.9414 91.0859 62.0273 91.0859C63.7539 91.0859 65.0859 91.6367 66.0234 92.7383C66.9688 93.8398 67.4414 95.3984 67.4414 97.4141V98.5625H59.1562C59.2422 99.6094 59.5898 100.438 60.1992 101.047C60.8164 101.656 61.5898 101.961 62.5195 101.961C63.8242 101.961 64.8867 101.434 65.707 100.379L67.2422 101.844C66.7344 102.602 66.0547 103.191 65.2031 103.613C64.3594 104.027 63.4102 104.234 62.3555 104.234ZM62.0156 93.3711C61.2344 93.3711 60.6016 93.6445 60.1172 94.1914C59.6406 94.7383 59.3359 95.5 59.2031 96.4766H64.6289V96.2656C64.5664 95.3125 64.3125 94.5938 63.8672 94.1094C63.4219 93.6172 62.8047 93.3711 62.0156 93.3711ZM72.3047 91.3203L72.3867 92.7852C73.3242 91.6523 74.5547 91.0859 76.0781 91.0859C78.7188 91.0859 80.0625 92.5977 80.1094 95.6211V104H77.2617V95.7852C77.2617 94.9805 77.0859 94.3867 76.7344 94.0039C76.3906 93.6133 75.8242 93.418 75.0352 93.418C73.8867 93.418 73.0312 93.9375 72.4688 94.9766V104H69.6211V91.3203H72.3047ZM87.4922 100.391L90.1758 91.3203H93.1172L88.7227 104H86.25L81.8203 91.3203H84.7734L87.4922 100.391Z" fill="#2BB6E1"/>
<path d="M105.176 88.2383V91.3203H107.414V93.4297H105.176V100.508C105.176 100.992 105.27 101.344 105.457 101.562C105.652 101.773 105.996 101.879 106.488 101.879C106.816 101.879 107.148 101.84 107.484 101.762V103.965C106.836 104.145 106.211 104.234 105.609 104.234C103.422 104.234 102.328 103.027 102.328 100.613V93.4297H100.242V91.3203H102.328V88.2383H105.176ZM115.184 104.234C113.379 104.234 111.914 103.668 110.789 102.535C109.672 101.395 109.113 99.8789 109.113 97.9883V97.6367C109.113 96.3711 109.355 95.2422 109.84 94.25C110.332 93.25 111.02 92.4727 111.902 91.918C112.785 91.3633 113.77 91.0859 114.855 91.0859C116.582 91.0859 117.914 91.6367 118.852 92.7383C119.797 93.8398 120.27 95.3984 120.27 97.4141V98.5625H111.984C112.07 99.6094 112.418 100.438 113.027 101.047C113.645 101.656 114.418 101.961 115.348 101.961C116.652 101.961 117.715 101.434 118.535 100.379L120.07 101.844C119.562 102.602 118.883 103.191 118.031 103.613C117.188 104.027 116.238 104.234 115.184 104.234ZM114.844 93.3711C114.062 93.3711 113.43 93.6445 112.945 94.1914C112.469 94.7383 112.164 95.5 112.031 96.4766H117.457V96.2656C117.395 95.3125 117.141 94.5938 116.695 94.1094C116.25 93.6172 115.633 93.3711 114.844 93.3711ZM130.066 104C129.941 103.758 129.832 103.363 129.738 102.816C128.832 103.762 127.723 104.234 126.41 104.234C125.137 104.234 124.098 103.871 123.293 103.145C122.488 102.418 122.086 101.52 122.086 100.449C122.086 99.0977 122.586 98.0625 123.586 97.3438C124.594 96.6172 126.031 96.2539 127.898 96.2539H129.645V95.4219C129.645 94.7656 129.461 94.2422 129.094 93.8516C128.727 93.4531 128.168 93.2539 127.418 93.2539C126.77 93.2539 126.238 93.418 125.824 93.7461C125.41 94.0664 125.203 94.4766 125.203 94.9766H122.355C122.355 94.2812 122.586 93.6328 123.047 93.0312C123.508 92.4219 124.133 91.9453 124.922 91.6016C125.719 91.2578 126.605 91.0859 127.582 91.0859C129.066 91.0859 130.25 91.4609 131.133 92.2109C132.016 92.9531 132.469 94 132.492 95.3516V101.07C132.492 102.211 132.652 103.121 132.973 103.801V104H130.066ZM126.938 101.949C127.5 101.949 128.027 101.812 128.52 101.539C129.02 101.266 129.395 100.898 129.645 100.438V98.0469H128.109C127.055 98.0469 126.262 98.2305 125.73 98.5977C125.199 98.9648 124.934 99.4844 124.934 100.156C124.934 100.703 125.113 101.141 125.473 101.469C125.84 101.789 126.328 101.949 126.938 101.949ZM138.152 91.3203L138.234 92.6445C139.125 91.6055 140.344 91.0859 141.891 91.0859C143.586 91.0859 144.746 91.7344 145.371 93.0312C146.293 91.7344 147.59 91.0859 149.262 91.0859C150.66 91.0859 151.699 91.4727 152.379 92.2461C153.066 93.0195 153.418 94.1602 153.434 95.668V104H150.586V95.75C150.586 94.9453 150.41 94.3555 150.059 93.9805C149.707 93.6055 149.125 93.418 148.312 93.418C147.664 93.418 147.133 93.5938 146.719 93.9453C146.312 94.2891 146.027 94.7422 145.863 95.3047L145.875 104H143.027V95.6562C142.988 94.1641 142.227 93.418 140.742 93.418C139.602 93.418 138.793 93.8828 138.316 94.8125V104H135.469V91.3203H138.152Z" fill="#2492B5"/>
</svg>
