<svg width="135" height="24" viewBox="0 0 135 24" fill="none" xmlns="http://www.w3.org/2000/svg">
<path d="M47.5078 23.4187C44.75 22.6453 43.3438 20.8836 43.2891 18.1336V15.6375C43.2891 13.8797 42.5352 13.0008 41.0273 13.0008V10.9148C42.5352 10.9148 43.2891 10.032 43.2891 8.2664V5.78203C43.3125 4.37578 43.6758 3.23906 44.3789 2.37187C45.0898 1.50468 46.1328 0.875778 47.5078 0.485153L48.0703 2.12578C46.7188 2.56328 46.0195 3.75859 45.9727 5.71172V8.24297C45.9727 10.0008 45.2969 11.2352 43.9453 11.9461C45.2969 12.6648 45.9727 13.9109 45.9727 15.6844V18.1805C46.0195 20.1336 46.7188 21.3289 48.0703 21.7664L47.5078 23.4187ZM86.8828 21.7664C88.2578 21.3211 88.9609 20.1023 88.9922 18.1102V15.6727C88.9922 13.868 89.7031 12.6297 91.125 11.9578C89.7031 11.2859 88.9922 10.0359 88.9922 8.20781V5.78203C88.9609 3.78984 88.2578 2.57109 86.8828 2.12578L87.4453 0.485153C88.8672 0.883591 89.9258 1.53203 90.6211 2.43047C91.3164 3.32109 91.6641 4.48906 91.6641 5.93437V8.27812C91.6641 10.0359 92.4219 10.9148 93.9375 10.9148V13.0008C92.4219 13.0008 91.6641 13.8797 91.6641 15.6375V17.9461C91.6641 19.407 91.3125 20.5828 90.6094 21.4734C89.9141 22.3719 88.8594 23.0203 87.4453 23.4187L86.8828 21.7664Z" fill="#15566A"/>
<path d="M55.4766 19.4344C53.6719 19.4344 52.207 18.868 51.082 17.7352C49.9648 16.5945 49.4062 15.0789 49.4062 13.1883V12.8367C49.4062 11.5711 49.6484 10.4422 50.1328 9.45C50.625 8.45 51.3125 7.67265 52.1953 7.11797C53.0781 6.56328 54.0625 6.28593 55.1484 6.28593C56.875 6.28593 58.207 6.83672 59.1445 7.93828C60.0898 9.03984 60.5625 10.5984 60.5625 12.6141V13.7625H52.2773C52.3633 14.8094 52.7109 15.6375 53.3203 16.2469C53.9375 16.8562 54.7109 17.1609 55.6406 17.1609C56.9453 17.1609 58.0078 16.6336 58.8281 15.5789L60.3633 17.0437C59.8555 17.8016 59.1758 18.3914 58.3242 18.8133C57.4805 19.2273 56.5312 19.4344 55.4766 19.4344ZM55.1367 8.57109C54.3555 8.57109 53.7227 8.84453 53.2383 9.3914C52.7617 9.93828 52.457 10.7 52.3242 11.6766H57.75V11.4656C57.6875 10.5125 57.4336 9.79375 56.9883 9.30937C56.543 8.81718 55.9258 8.57109 55.1367 8.57109ZM65.4258 6.52031L65.5078 7.98515C66.4453 6.85234 67.6758 6.28593 69.1992 6.28593C71.8398 6.28593 73.1836 7.79765 73.2305 10.8211V19.2H70.3828V10.9852C70.3828 10.1805 70.207 9.58672 69.8555 9.2039C69.5117 8.81328 68.9453 8.61797 68.1562 8.61797C67.0078 8.61797 66.1523 9.1375 65.5898 10.1766V19.2H62.7422V6.52031H65.4258ZM80.6133 15.5906L83.2969 6.52031H86.2383L81.8438 19.2H79.3711L74.9414 6.52031H77.8945L80.6133 15.5906Z" fill="#2BB6E1"/>
</svg>
